# xmcd
#
# Track frame offsets: 
#        150
#        21595
#        40233
#        58324
#        71712
#        92823
#        105929
#        122299
#        133662
#        156550
#        176822
#        192920
#        206566
#        224958
#        237561
#        255154
#
# Disc length: 3566 seconds
#
# Revision: 0
# Processed by: cddbd v1.5.1PL0 Copyright (c) Steve Scherf et al.
# Submitted via: ExactAudioCopy v0.95a5
#
DISCID=f60dec10
DTITLE=Various Artist - Texas Renegade Radio - A CountryAmericana Music Colle
DTITLE=ction
DYEAR=1998
DGENRE=Country
TTITLE0=Ray Wylie Hubbard - Hey That's All Right
TTITLE1=Kimmie Rhodes - Just To Be Near You
TTITLE2=Max Stalling - I-35
TTITLE3=Cowboys and Indians - The Western Life
TTITLE4=Larry Joe Taylor - American Dream
TTITLE5=James Hand - Baby, Baby Don't Tell Me That
TTITLE6=Red Dirt Rangers - Dog On A Chain
TTITLE7=Ronnie Spears - Texas Music
TTITLE8=Tommy Alverson - Purty Boys
TTITLE9=Hangdogs - Monopoly On The Blues
TTITLE10=Front Porch Boys - Texas Time
TTITLE11=Brian Burns - Whiskey O
TTITLE12=Pat Green - I Like Texas
TTITLE13=Donny Ray Ford - Cowboy Boots
TTITLE14=Ed Burleson - Wide Open Spaces
TTITLE15=Mark David Manders - Rodeo Song
EXTD=
EXTT0=
EXTT1=
EXTT2=
EXTT3=
EXTT4=
EXTT5=
EXTT6=
EXTT7=
EXTT8=
EXTT9=
EXTT10=
EXTT11=
EXTT12=
EXTT13=
EXTT14=
EXTT15=
PLAYORDER=
